<svg width="512" height="512" viewBox="0 0 512 512" xmlns="http://www.w3.org/2000/svg">
  <defs>
    <filter id="shadow" x="-20%" y="-20%" width="140%" height="140%">
      <feDropShadow dx="4" dy="8" stdDeviation="8" flood-opacity="0.3"/>
    </filter>
  </defs>

  <!-- Door Frame -->
  <path d="M136 56 H376 C393.673 56 408 70.327 408 88 V456 H104 V88 C104 70.327 118.327 56 136 56 Z" 
        fill="#E11D48" filter="url(#shadow)"/>
  
  <!-- Door Inner Body -->
  <rect x="136" y="88" width="240" height="368" fill="#FB7185"/>
  
  <!-- Top Panel -->
  <rect x="160" y="120" width="192" height="128" rx="8" fill="#FDA4AF" stroke="#BE123C" stroke-width="2" fill-opacity="0.4"/>
  
  <!-- Bottom Panel -->
  <rect x="160" y="280" width="192" height="144" rx="8" fill="#FDA4AF" stroke="#BE123C" stroke-width="2" fill-opacity="0.4"/>
  
  <!-- Door Knob -->
  <circle cx="304" cy="264" r="14" fill="#881337"/>
  <circle cx="304" cy="264" r="10" fill="#FFE4E6"/>
  
  <!-- Highlight -->
  <path d="M136 56 H376 C393.673 56 408 70.327 408 88 V96 C408 78.327 393.673 64 376 64 H136 C118.327 64 104 78.327 104 96 V88 C104 70.327 118.327 56 136 56 Z" fill="#FFFFFF" fill-opacity="0.2"/>
</svg>
